REM DIRINDEX 1\2,1\3,1\4,1\5
REM DIRNAME cjc004,folder01,folder02,folder03,folder04
TITLE ""
FILE "1Q_t_0750-0759.mp3" MP3
  TRACK 01 AUDIO
    TITLE "3:cjc004_3153"
    INDEX 01 00:00:00
  TRACK 02 AUDIO
    TITLE "0:"
    INDEX 01 00:01:01
  TRACK 03 AUDIO
    TITLE "4:cjc004_3154"
    INDEX 01 00:01:26
  TRACK 04 AUDIO
    TITLE "0:"
    INDEX 01 00:02:47
  TRACK 05 AUDIO
    TITLE "5:cjc004_3155"
    INDEX 01 00:02:73
  TRACK 06 AUDIO
    TITLE "0:"
    INDEX 01 00:07:35
  TRACK 07 AUDIO
    TITLE "3:cjc004_3156"
    INDEX 01 00:08:13
  TRACK 08 AUDIO
    TITLE "0:"
    INDEX 01 00:09:38
  TRACK 09 AUDIO
    TITLE "4:cjc004_3157"
    INDEX 01 00:09:53
  TRACK 10 AUDIO
    TITLE "0:"
    INDEX 01 00:11:01
  TRACK 11 AUDIO
    TITLE "5:cjc004_3158"
    INDEX 01 00:11:23
  TRACK 12 AUDIO
    TITLE "0:"
    INDEX 01 00:16:28
  TRACK 13 AUDIO
    TITLE "3:cjc004_3159"
    INDEX 01 00:17:10
  TRACK 14 AUDIO
    TITLE "0:"
    INDEX 01 00:18:29
  TRACK 15 AUDIO
    TITLE "4:cjc004_3160"
    INDEX 01 00:18:64
  TRACK 16 AUDIO
    TITLE "0:"
    INDEX 01 00:19:73
  TRACK 17 AUDIO
    TITLE "5:cjc004_3161"
    INDEX 01 00:20:22
  TRACK 18 AUDIO
    TITLE "0:"
    INDEX 01 00:25:25
  TRACK 19 AUDIO
    TITLE "3:cjc004_3162"
    INDEX 01 00:26:07
  TRACK 20 AUDIO
    TITLE "0:"
    INDEX 01 00:27:18
  TRACK 21 AUDIO
    TITLE "4:cjc004_3163"
    INDEX 01 00:27:49
  TRACK 22 AUDIO
    TITLE "0:"
    INDEX 01 00:28:53
  TRACK 23 AUDIO
    TITLE "5:cjc004_3164"
    INDEX 01 00:29:09
  TRACK 24 AUDIO
    TITLE "0:"
    INDEX 01 00:34:26
  TRACK 25 AUDIO
    TITLE "3:cjc004_3165"
    INDEX 01 00:35:10
  TRACK 26 AUDIO
    TITLE "0:"
    INDEX 01 00:36:27
  TRACK 27 AUDIO
    TITLE "4:cjc004_3166"
    INDEX 01 00:36:54
  TRACK 28 AUDIO
    TITLE "0:"
    INDEX 01 00:38:08
  TRACK 29 AUDIO
    TITLE "5:cjc004_3167"
    INDEX 01 00:38:35
  TRACK 30 AUDIO
    TITLE "0:"
    INDEX 01 00:43:46
  TRACK 31 AUDIO
    TITLE "3:cjc004_3168"
    INDEX 01 00:44:20
  TRACK 32 AUDIO
    TITLE "0:"
    INDEX 01 00:45:35
  TRACK 33 AUDIO
    TITLE "4:cjc004_3169"
    INDEX 01 00:45:65
  TRACK 34 AUDIO
    TITLE "0:"
    INDEX 01 00:46:72
  TRACK 35 AUDIO
    TITLE "5:cjc004_3170"
    INDEX 01 00:47:23
  TRACK 36 AUDIO
    TITLE "0:"
    INDEX 01 00:51:38
  TRACK 37 AUDIO
    TITLE "3:cjc004_3171"
    INDEX 01 00:52:20
  TRACK 38 AUDIO
    TITLE "0:"
    INDEX 01 00:53:47
  TRACK 39 AUDIO
    TITLE "4:cjc004_3172"
    INDEX 01 00:54:03
  TRACK 40 AUDIO
    TITLE "0:"
    INDEX 01 00:55:69
  TRACK 41 AUDIO
    TITLE "5:cjc004_3173"
    INDEX 01 00:56:18
  TRACK 42 AUDIO
    TITLE "0:"
    INDEX 01 01:01:29
  TRACK 43 AUDIO
    TITLE "3:cjc004_3174"
    INDEX 01 01:02:08
  TRACK 44 AUDIO
    TITLE "0:"
    INDEX 01 01:03:14
  TRACK 45 AUDIO
    TITLE "4:cjc004_3175"
    INDEX 01 01:03:49
  TRACK 46 AUDIO
    TITLE "0:"
    INDEX 01 01:04:58
  TRACK 47 AUDIO
    TITLE "5:cjc004_3176"
    INDEX 01 01:05:13
  TRACK 48 AUDIO
    TITLE "0:"
    INDEX 01 01:10:04
  TRACK 49 AUDIO
    TITLE "3:cjc004_3177"
    INDEX 01 01:10:57
  TRACK 50 AUDIO
    TITLE "0:"
    INDEX 01 01:11:64
  TRACK 51 AUDIO
    TITLE "4:cjc004_3178"
    INDEX 01 01:12:21
  TRACK 52 AUDIO
    TITLE "0:"
    INDEX 01 01:13:38
  TRACK 53 AUDIO
    TITLE "5:cjc004_3179"
    INDEX 01 01:13:65
  TRACK 54 AUDIO
    TITLE "0:"
    INDEX 01 01:19:32
  TRACK 55 AUDIO
    TITLE "3:cjc004_3180"
    INDEX 01 01:20:08
  TRACK 56 AUDIO
    TITLE "0:"
    INDEX 01 01:21:20
  TRACK 57 AUDIO
    TITLE "4:cjc004_3181"
    INDEX 01 01:21:49
  TRACK 58 AUDIO
    TITLE "0:"
    INDEX 01 01:22:74
  TRACK 59 AUDIO
    TITLE "5:cjc004_3182"
    INDEX 01 01:23:24
  TRACK 60 AUDIO
    TITLE "0:"
    INDEX 01 01:29:50
